<svg width="32" height="32" viewBox="0 0 32 32" fill="none" xmlns="http://www.w3.org/2000/svg">
<g id="Close">
<rect width="32" height="32" rx="16" fill="#EBEBEB"/>
<g id="Vector">
<path d="M20.9999 9.99993C21.2761 9.72379 21.7238 9.72379 21.9999 9.99993C22.2761 10.2761 22.2761 10.7238 21.9999 10.9999L11.0001 21.9998C10.7239 22.2759 10.2762 22.2759 10.0001 21.9998C9.72393 21.7236 9.72393 21.2759 10.0001 20.9998L20.9999 9.99993Z" fill="#757575"/>
<path d="M10.0001 10.9999C9.72393 10.7238 9.72393 10.2761 10.0001 9.99993C10.2762 9.72379 10.7239 9.72379 11.0001 9.99993L21.9999 20.9998C22.2761 21.2759 22.2761 21.7236 21.9999 21.9998C21.7238 22.2759 21.2761 22.2759 20.9999 21.9998L10.0001 10.9999Z" fill="#757575"/>
</g>
</g>
</svg>
